<?xml version="1.0" encoding="utf-8"?>
<!-- Generator: Adobe Illustrator 16.0.0, SVG Export Plug-In . SVG Version: 6.00 Build 0)  -->
<!DOCTYPE svg PUBLIC "-//W3C//DTD SVG 1.1 Tiny//EN" "http://www.w3.org/Graphics/SVG/1.1/DTD/svg11-tiny.dtd">
<svg version="1.1" baseProfile="tiny" id="Layer_1" xmlns="http://www.w3.org/2000/svg" xmlns:xlink="http://www.w3.org/1999/xlink"
	 x="0px" y="0px" width="612px" height="792px" viewBox="0 0 612 792" xml:space="preserve">
<circle fill="#E1DCDB" cx="301.425" cy="396" r="332"/>
<g>
	<path fill="#B5AAA9" d="M242.085,594.893c-12.09-2.195-22.254-7.23-31.289-15.504c-8.477-7.759-10.621-11.423-25.535-43.605
		c-2.856-6.16-7.266-16.422-9.801-22.801c-4.891-11.981-13.004-31.021-24.133-35.688c-3.484-1.332-3.707-1.319-7.008,0.282
		c-5.472,2.66-15.675,15.332-25.218,31.324c-5.653,9.473-11.258,20.223-11.258,21.594c0,1.234,2.758,2.218,8.054,2.875
		c4.125,0.511,4.465,0.414,6.696-1.926c2.765-2.899,5.758-3.195,8.301-0.828c3.281,3.054,1.347,8.785-3.508,10.386
		c-2.735,0.903-3.028,0.821-5.453-1.53c-2.121-2.059-3.207-2.488-6.282-2.488c-2.043,0-3.964,0.406-4.273,0.901
		c-0.305,0.5,1.059,4.005,3.035,7.789c2.879,5.524,4.191,7.203,6.641,8.496c3.957,2.095,4.945,3.715,3.961,6.489
		c-1.071,3-4.473,5.313-7.989,5.425c-2.343,0.079-3.304-0.351-4.593-2.05c-1.481-1.957-1.536-2.473-0.618-5.754
		c1.008-3.59,0.993-3.641-2.816-10.09c-2.105-3.563-4.16-6.688-4.57-6.941c-1.403-0.864-4.903,2.645-7.676,7.703
		c-2.297,4.188-2.645,5.414-2.012,7.145c1.102,3.008,0.5,4.741-2.117,6.098c-3.219,1.664-5.703,1.483-8.863-0.637
		c-5.274-3.543-3.395-9.375,3.019-9.375c2.914,0,3.899-1.099,10.223-11.402c2.133-3.469,3.605-6.731,3.351-7.399
		c-0.343-0.894-1.789-1.198-5.73-1.198c-4.809,0-5.461,0.207-7.426,2.352c-4.73,5.156-9.929,4.601-11.011-1.176
		c-0.399-2.129-0.184-3.228,0.867-4.387c2.203-2.434,4.183-2.668,7.261-0.852c4.747,2.8,14.504,1.796,17.618-1.813
		c0.929-1.074,3.406-6.043,5.5-11.039c2.097-4.996,6.062-13.767,8.812-19.484c2.75-5.719,6.176-13.227,7.609-16.68
		c2.907-7.008,6.016-11.508,12.68-18.349c4.969-5.097,9.328-6.972,16.207-6.972c17.645,5.933,30.113,38.715,33.922,48
		c6.727,16.461,11.973,28.222,14.984,33.597c5.59,9.989,14.879,19.289,26.032,26.063c12.918,7.851,33.031,13.359,43.504,11.922
		c10.121-2.477,15.796-13.25,15.855-21.719c0.004-4.996-3.017-15.215-6.552-22.16c-2.577-5.071-9.793-14.34-13.543-17.41
		c-4.754-3.887-16.675-10.508-23.5-13.047c-3.082-1.149-8.121-3.317-11.199-4.821c-3.082-1.503-8.023-3.812-10.984-5.128
		c-7.719-3.438-14.973-8.34-25.969-17.555c-16.824-14.098-22.652-21.418-29.039-36.481c-1.695-3.991-4.223-9.914-5.613-13.155
		c-6.215-14.449-8.782-32.73-7.254-51.653c0.519-6.461,1.613-14.336,2.426-17.5c2.136-8.321,7.054-19.102,12.425-27.25
		c8.352-12.664,36.461-42.336,51.219-54.063c9.09-7.222,23.438-16.484,30.551-19.726c69.496-32.215,108.363-11.285,137.085,0.035
		c63.969,35.211,115.234,93.726,132.32,159.648c2.094,7.868,9.52,59.321,6.875,59.474c-11.246-94.008-45.984-125.13-74.43-155.79
		c-11.266-11.832-36.156-31.981-49.262-39.871c-17.035-10.262-38.652-19.059-53.148-21.477c-14.492-2.422-18.598-1.722-30.801,1.637
		c-12.203,3.359-33.246,14.75-39.905,20.992c-7.458,5.403-3.809,9.258-6.548,15.32c-3.414,7.458-5.257,16.176-5.41,25.575
		c-1.539,16.121,9.578,13.418,17.797,12.984c6.855-0.316,13.522-0.594,14.819-0.617c1.906-0.031,3.219,0.926,6.863,5l4.508,5.039
		l5.137-0.992c10.266-1.977,13.82-3.328,16.191-6.168c2.68-3.207,5.914-3.571,9.941-1.113c2.121,1.292,2.602,2.093,2.602,4.328
		c0,5.242-7.348,8.839-11.555,5.656c-2.039-1.547-3.266-1.488-9.563,0.457c-9.234,2.851-7.094,4.902,10.426,9.976
		c5.258,1.524,7.012,1.735,8.828,1.051c2.906-1.093,7.555,0.715,9.512,3.699c1.297,1.981,1.293,2.266-0.035,5.211
		c-1.672,3.707-5.043,5.481-8.262,4.348c-1.852-0.648-2.793-1.93-4.949-6.719c-0.328-0.718-3.547-1.918-8.074-3
		c-4.141-0.988-9.859-2.515-12.711-3.386c-7.766-2.375-8.172-1.489-3.703,8.074c2.566,5.488,4.121,7.855,5.617,8.539
		c4.637,2.109,1.398,11.375-3.977,11.375c-2.66,0-7.555-4.715-7.555-7.277c0-1.008,0.934-3.18,2.07-4.825l2.074-2.988l-3.773-6.918
		c-2.074-3.805-4.254-7.105-4.852-7.332c-0.594-0.23-2.289,0.332-3.769,1.246c-2.219,1.375-2.859,2.434-3.68,6.102
		c-1.103,4.922-2.586,6.32-7.465,7.047c-3.81,0.562-5.133-0.7-5.867-5.59c-0.896-5.969,0.117-7.645,5.269-8.719
		c7.692-1.602,11.021-4.09,8.621-6.438c-0.565-0.554-3.793-1.929-7.168-3.058c-10.542-3.52-20.304-2.578-25.535,2.461
		c-3.207,3.09-8.75,5.09-14.093,5.09c-10.161,0-12.887-7.703-8.645-24.434c1.094-4.312,3.074-10.16,4.402-12.992
		c4.895-10.465,2.317-10.883-7.234-1.176c-13.105,13.32-20.309,24.684-27.004,42.602c-8.32,22.274-10.25,31.125-11.867,54.399
		c-4.277,36.246,30.562,68.973,57.941,77.711c9.993,2.965,27.142,13.483,34.63,21.246c17.405,20.332,30.116,44.566,30.331,69.444
		c-0.012,9.911-0.242,10.504-4.672,11.896c-9.066,2.854-29.198,5.785-47.519,6.91C255.132,596.357,249.641,596.264,242.085,594.893
		L242.085,594.893z M304.327,492.33c-3.758-2.887-3.999-7.157-0.637-11.234l2.496-3.027l-3.355-8.422
		c-2.292-5.75-4.163-9.156-5.894-10.734c-2.352-2.137-3.012-2.313-8.938-2.329c-10.896-0.026-14.407,0.681-17.801,3.586
		c-1.668,1.427-4.246,5.017-5.734,7.974c-3.473,6.914-5.625,6.125-11.945,8.112c-12.575,2.649-20.11-16.808,2.117-23.472
		c13.277-1.446,12.543-3.2,26.652-4.996c15.155-2.43,16.559,9.746,24.581-3.848c3.219-5.478,3.363-5.978,2.441-8.521
		c-0.777-2.151-0.766-3.207,0.059-5.19c1.125-2.724,2.953-3.48,8.66-3.603c4.203-0.086,6.566,2.196,6.566,6.349
		c0,3.145-3.73,6.78-6.965,6.78c-3.789,0-9.848,8.306-7.656,10.496c1.301,1.302,18.449-2.961,22.109-5.496
		c3.707-2.565,8.383-2.89,10.758-0.741c0.863,0.78,2.023,3.039,2.574,5.016c1.23,4.386,0.246,7.16-2.977,8.386
		c-2.879,1.094-5.598,0.353-9.195-2.511c-3.52-2.801-4.168-2.84-11.426-0.664c-3.09,0.925-6.07,1.816-6.621,1.976
		c-2.539,0.735-0.617,3.388,5.613,7.759c12.418,8.707,14.59,10.164,17.582,11.784c6.02,3.263,6.773,10.599,1.461,14.181
		c-3.613,2.437-6.105,2.289-8.918-0.524c-1.914-1.914-2.34-3.011-2.34-6.05c0-3.418-0.336-4.047-4.199-7.887
		c-5.996-5.961-15.344-13.324-16.914-13.324c-0.734,0-1.523,0.496-1.758,1.097c-0.563,1.47,5.582,16.845,7.598,19.008
		c0.879,0.942,1.828,2.778,2.113,4.078C315.487,491.107,308.292,495.373,304.327,492.33L304.327,492.33z M197.843,266.185
		c-3.723-2.023-6.668-5.191-7.75-8.336c-1.399-4.07-0.996-14.988,0.937-25.266c3.309-17.625,3-30.8-0.726-30.8
		c-1.703,0-6.461,4.843-6.461,6.578c0,1.637-5.125,5.929-7.91,6.629c-4.766,1.195-8.739-8.524-4.903-11.996
		c1.278-1.157,2.446-1.348,5.973-0.985c4.207,0.434,4.547,0.321,8.453-2.789c2.379-1.89,3.965-3.762,3.824-4.5
		c-0.328-1.691-5.051-4.855-14.039-9.398c-7.222-3.653-7.492-3.723-10.91-2.766c-3.926,1.102-5.93,0.465-8.047-2.558
		c-2.672-3.817-1.125-8.586,3.336-10.282c5.192-1.976,9.824,0.313,9.824,4.856c0,2.152,0.543,2.664,5.477,5.148
		c3.012,1.516,7.348,3.86,9.633,5.211c2.289,1.348,4.629,2.449,5.203,2.449c0.773,0,1.18-2.574,1.574-9.949
		c0.293-5.473,0.734-10.965,0.984-12.211c0.348-1.738-0.113-2.976-2.007-5.359c-3.661-4.602-3.02-10.043,1.461-12.442
		c3.757-2.007,11.957,3.645,10.812,7.454c-0.281,0.941-1.555,2.808-2.828,4.148c-1.895,2-2.453,3.522-3.086,8.402
		c-0.871,6.711-1.074,19.969-0.336,21.895c0.941,2.457,11.164-1.352,10.754-6.336c-0.445-5.379,2.41-9.137,3.996-9.715
		c11.598-4.234,12.613,4.383,13.211,6.266c0.742,2.34-1.934,6.812-4.922,8.23c-2.633,1.25-2.891,1.231-5.945-0.488l-2.77,0.746
		l-4.488,1.859c-1.977,0.821-2.438,2.336-3.559,3.95c-1.984,2.867-2.004,3.019-0.785,6.445c1.711,4.812,4.477,22.531,5.102,32.699
		c0.437,7.063,0.738,8.434,1.898,8.656c1.711,0.325,7.02-3.613,7.02-5.203c0-0.644,1.054-2.219,2.34-3.508
		c4.546-4.546,11.546-2.117,14.945,5.188c2.891,6.199,2.394,9.394-2.316,15.016c-1.415,1.683-3.77,4.488-5.239,6.234
		c-4.078,4.848-9.711,7.234-18.23,7.726C201.723,267.404,199.746,267.22,197.843,266.185L197.843,266.185z M197.843,266.185"/>
</g>
</svg>
